<?xml version="1.0" encoding="UTF-8"?>
<!DOCTYPE svg PUBLIC "-//W3C//DTD SVG 1.1//EN" "http://www.w3.org/Graphics/SVG/1.1/DTD/svg11.dtd">
<!-- Creator: CorelDRAW -->
<svg xmlns="http://www.w3.org/2000/svg" xml:space="preserve" width="586px" height="215px" version="1.1" style="shape-rendering:geometricPrecision; text-rendering:geometricPrecision; image-rendering:optimizeQuality; fill-rule:evenodd; clip-rule:evenodd"
viewBox="0 0 13.14 4.82"
 xmlns:xlink="http://www.w3.org/1999/xlink"
 xmlns:xodm="http://www.corel.com/coreldraw/odm/2003">
 <defs>
  <style type="text/css">
   <![CDATA[
    .fil0 {fill:#373435}
   ]]>
  </style>
 </defs>
 <g id="Layer_x0020_1">
  <metadata id="CorelCorpID_0Corel-Layer"/>
  <g id="_1812895901568">
   <g>
    <path class="fil0" d="M3.6 2.49c0,0.03 -0.07,0.27 -0.07,0.29 0.11,0 0.22,0 0.33,0 -0.01,0.02 -0.02,0.04 -0.03,0.06 0,0.01 -0.01,0.02 -0.01,0.03 -0.01,0.01 -0.01,0.01 -0.02,0.02 -0.06,0 -0.25,0.03 -0.33,0.04 -0.02,0 -0.02,0 -0.05,0 -0.01,0.02 -0.05,0.23 -0.05,0.25 0,0.03 0.03,0.04 0.06,0.05l0.26 0.12c0.03,0.02 0.02,0.03 0.02,0.07 0.01,0.05 0.03,0.13 0.03,0.17 -0.01,0.01 -0.01,0.01 -0.02,0.01 -0.01,0.01 -0.01,0.01 -0.02,0.02 -0.03,0.03 -0.07,0.06 -0.1,0.09 -0.02,0.01 -0.03,0.02 -0.04,0.03 -0.02,0.02 -0.08,0.07 -0.11,0.09 0,0.02 0.02,0.04 0.03,0.06 0.01,0.03 0.02,0.05 0.03,0.07l0.06 0.13c0.03,0 0.16,-0.03 0.19,-0.03 0.06,-0.01 0.13,-0.02 0.19,-0.03 0.01,0.01 0.02,0.02 0.03,0.04l0.04 0.03c0.02,0.03 0.06,0.07 0.08,0.07 0,0.03 -0.07,0.37 -0.08,0.39 0.09,0.04 0.17,0.1 0.26,0.12l0.13 -0.12c0.02,-0.02 0.04,-0.04 0.07,-0.07 0.07,-0.07 0.05,-0.06 0.16,-0.04 0.05,0.01 0.11,0 0.14,0.05 0.01,0.01 0.03,0.04 0.03,0.06l0.12 0.26c0.02,0 0.04,-0.01 0.06,-0.01 0.02,0 0.04,0 0.06,-0.01 0.04,0 0.11,-0.01 0.15,-0.02 0.02,0 0.01,-0.02 0.02,-0.07 0.02,-0.07 0.03,-0.15 0.04,-0.23 0.02,-0.11 0.03,-0.07 0.14,-0.12 0.13,-0.07 0.11,-0.04 0.25,0.05 0.03,0.01 0.15,0.08 0.16,0.08 0.03,0 0.1,-0.06 0.11,-0.08l0.08 -0.07c0,0 0.02,-0.02 0.02,-0.02 0,-0.06 -0.15,-0.29 -0.15,-0.35 0,-0.03 0.03,-0.07 0.05,-0.1 0.02,-0.02 0.04,-0.07 0.05,-0.1l0.34 -0.04c0.03,0 0.04,0 0.05,-0.03 0.02,-0.06 0.03,-0.18 0.04,-0.25l-0.06 -0.02c-0.03,-0.01 -0.26,-0.01 -0.3,-0.01 -0.1,0 -0.19,-0.09 -0.19,-0.2l0 -0.24c0,-0.08 0.04,-0.13 0.09,-0.17 -0.01,-0.01 -0.09,-0.05 -0.11,-0.09l0 0c-0.01,0.06 -0.05,0.11 -0.1,0.13 -0.03,0.01 -0.08,0.01 -0.12,0.01 -0.05,0 -0.02,0.01 0,0.06 0.07,0.11 0.11,0.24 0.11,0.38l0 0.06c0,0.19 -0.09,0.41 -0.22,0.54 -0.13,0.13 -0.24,0.2 -0.42,0.24 -0.31,0.08 -0.63,-0.04 -0.83,-0.28 -0.02,-0.02 -0.04,-0.04 -0.05,-0.06 -0.03,-0.04 -0.05,-0.08 -0.07,-0.13 -0.03,-0.05 -0.04,-0.1 -0.06,-0.16 0,-0.02 -0.01,-0.05 -0.01,-0.08 -0.01,-0.13 -0.01,-0.21 0.03,-0.33 0.03,-0.13 0.1,-0.24 0.19,-0.34 0.02,-0.02 0.04,-0.04 0.06,-0.06 0.02,-0.02 0.06,-0.05 0.08,-0.06 0,-0.05 -0.03,-0.12 0.01,-0.19 0.01,-0.03 0.04,-0.05 0.06,-0.06 0,-0.01 -0.01,-0.02 -0.02,-0.03 -0.02,0 -0.09,0.11 -0.31,0.13 -0.14,0.01 -0.4,0 -0.56,0z"/>
    <path class="fil0" d="M4.11 3.33c0,0.17 0.06,0.37 0.18,0.49 0.04,0.06 0.09,0.1 0.15,0.14 0.14,0.1 0.28,0.15 0.46,0.15 0.24,0 0.45,-0.12 0.6,-0.3 0.09,-0.11 0.17,-0.29 0.17,-0.45 0,-0.16 -0.02,-0.23 -0.08,-0.36 0,-0.02 -0.01,-0.03 -0.02,-0.05 -0.02,-0.03 -0.05,-0.07 -0.06,-0.09l-0.1 0c0,0.01 0.02,0.03 0.03,0.05 0.22,0.26 0.19,0.66 -0.06,0.91l-0.09 0.08c-0.18,0.14 -0.48,0.17 -0.69,0.06 -0.02,-0.01 -0.04,-0.02 -0.06,-0.03 -0.02,-0.01 -0.03,-0.02 -0.05,-0.03 -0.08,-0.05 -0.16,-0.14 -0.21,-0.22 -0.01,-0.02 -0.01,-0.04 -0.02,-0.06 -0.05,-0.09 -0.07,-0.2 -0.07,-0.32 0,-0.14 0.06,-0.29 0.14,-0.38 0.01,-0.01 0.01,-0.02 0.02,-0.03 0.04,-0.05 0.09,-0.1 0.14,-0.13 -0.01,-0.02 -0.04,-0.05 -0.05,-0.07 -0.03,0.01 -0.13,0.12 -0.15,0.15 -0.03,0.03 -0.06,0.07 -0.08,0.1 -0.05,0.09 -0.09,0.23 -0.1,0.33 0,0.02 0,0.03 0,0.06z"/>
   </g>
   <g>
    <path class="fil0" d="M2.48 2.4c0,0.03 -0.04,0.03 -0.07,0.03l-1.06 0c-0.03,0 -0.03,0.04 -0.03,0.06l-0.05 0.19c-0.01,0.02 -0.03,0.06 0.01,0.06l1.29 0c0.14,0 0.23,-0.05 0.3,-0.12 0.09,-0.09 0.13,-0.15 0.13,-0.3 0,-0.15 -0.08,-0.16 -0.19,-0.21l-0.7 -0.3c-0.03,-0.01 -0.05,-0.02 -0.07,-0.03 -0.02,0 -0.03,-0.01 -0.04,-0.01 -0.04,-0.02 -0.03,-0.01 -0.03,-0.03 0,-0.02 0.02,-0.04 0.03,-0.05 0.02,-0.01 0.05,0 0.07,0l1.11 0c0.02,-0.03 0.02,-0.06 0.03,-0.08l0.06 -0.21c0,-0.02 -0.01,-0.04 -0.02,-0.04l-1.17 0c-0.1,0 -0.2,0.03 -0.27,0.05 -0.09,0.04 -0.14,0.07 -0.19,0.14 -0.07,0.08 -0.14,0.26 -0.11,0.35 0.02,0.07 0.07,0.09 0.13,0.12l0.82 0.33c0.01,0.01 0.02,0.03 0.02,0.05z"/>
    <path class="fil0" d="M11.37 2.74l0.28 0c0.02,0 0.02,-0.02 0.03,-0.04 0.01,-0.02 0.01,-0.04 0.02,-0.06 0.01,-0.05 0.02,-0.08 0.03,-0.13 0.02,-0.08 0.11,-0.44 0.13,-0.48 0.06,-0.13 0.17,-0.12 0.29,-0.12 0.03,0 0.01,0.06 0.01,0.07 0,0.02 -0.01,0.03 -0.01,0.05l-0.18 0.68c-0.01,0.02 0,0.03 0.02,0.03l0.28 0c0.02,0 0.03,-0.02 0.03,-0.04l0.04 -0.16c0.03,-0.1 0.06,-0.22 0.09,-0.32 0.01,-0.03 0.02,-0.07 0.03,-0.1l0.04 -0.16c0.01,-0.06 0,-0.05 0.14,-0.05 0.2,0 0.14,0.13 0.1,0.28l-0.12 0.44c0,0.02 -0.01,0.03 -0.01,0.05 -0.01,0.02 -0.03,0.06 0.02,0.06l0.27 0c0.02,0 0.02,-0.02 0.03,-0.03l0.04 -0.17c0.05,-0.17 0.1,-0.37 0.15,-0.54 0.01,-0.04 0.02,-0.09 0.02,-0.13l0 -0.02c0,-0.06 -0.02,-0.12 -0.09,-0.15 -0.05,-0.02 -0.13,-0.03 -0.2,-0.03l-0.86 0c-0.12,0 -0.25,0.02 -0.33,0.1 -0.01,0.01 -0.02,0.02 -0.03,0.03 -0.02,0.02 -0.05,0.07 -0.06,0.1 -0.03,0.06 -0.19,0.7 -0.22,0.79 0,0.01 0,0.02 0,0.02 -0.01,0.02 0,0.03 0.02,0.03z"/>
    <path class="fil0" d="M9.49 2.12l-0.39 0c-0.02,0 -0.01,-0.04 -0.01,-0.05l0.03 -0.11c0.01,-0.02 0.01,-0.05 0.03,-0.05l0.39 0c0.05,0 0.11,0.01 0.14,0.05 0,0.01 0.01,0.03 0.01,0.05 0,0.03 -0.05,0.07 -0.07,0.08 -0.03,0.02 -0.07,0.03 -0.13,0.03zm-0.87 0.62l0.28 0c0.02,0 0.03,-0.04 0.04,-0.08l0.07 -0.26c0,-0.02 0,-0.03 0.03,-0.03l0.15 0c0.03,0 0.03,0.01 0.05,0.04l0.05 0.07c0,0.01 0.01,0.01 0.02,0.02 0.01,0.02 0.02,0.04 0.03,0.05 0.03,0.04 0.05,0.07 0.07,0.1 0.01,0.02 0.02,0.03 0.03,0.05 0.02,0.02 0.03,0.04 0.05,0.04l0.3 0c0.01,0 0.03,-0.01 0.03,-0.02 0,-0.01 -0.01,-0.02 -0.02,-0.03l-0.17 -0.25c-0.02,-0.02 -0.04,-0.04 -0.03,-0.06 0.01,-0.02 0.08,0 0.16,-0.03 0.11,-0.04 0.2,-0.14 0.23,-0.25 0.01,-0.02 0.02,-0.04 0.02,-0.07 0.01,-0.02 0.02,-0.05 0.02,-0.08 0.02,-0.09 0.03,-0.19 -0.07,-0.25 -0.04,-0.02 -0.13,-0.03 -0.2,-0.03l-0.86 0c-0.03,0 -0.03,0.02 -0.03,0.05l-0.14 0.48c-0.04,0.16 -0.09,0.33 -0.13,0.49 0,0.02 -0.01,0.05 0.02,0.05z"/>
    <path class="fil0" d="M3.99 2.12l-0.39 0c-0.03,0 0,-0.08 0.01,-0.1 0.01,-0.03 0.02,-0.11 0.04,-0.11l0.39 0c0.05,0 0.11,0.01 0.14,0.05 0,0.01 0.01,0.03 0.01,0.05 0,0.03 -0.05,0.07 -0.07,0.08 -0.03,0.02 -0.08,0.03 -0.13,0.03zm-0.87 0.62l0.27 0c0.03,0 0.03,-0.04 0.05,-0.08l0.05 -0.2c0.03,-0.12 -0.02,-0.09 0.29,-0.09 0.13,0 0.37,0.01 0.48,-0.03 0.03,-0.01 0.06,-0.02 0.08,-0.03 0.12,-0.09 0.15,-0.2 0.19,-0.33 0.02,-0.1 0.03,-0.22 -0.07,-0.28 -0.05,-0.02 -0.13,-0.03 -0.2,-0.03l-0.86 0c-0.03,0 -0.03,0.02 -0.04,0.05 0,0.02 -0.01,0.04 -0.02,0.07 -0.01,0.04 -0.02,0.09 -0.03,0.13 -0.03,0.1 -0.05,0.19 -0.08,0.28 -0.02,0.09 -0.05,0.19 -0.07,0.28l-0.06 0.21c0,0.02 -0.01,0.05 0.02,0.05z"/>
    <path class="fil0" d="M10.03 2.53c0,0.05 0,0.08 0.03,0.12 0.02,0.03 0.04,0.05 0.07,0.06 0.05,0.02 0.13,0.03 0.21,0.03l0.49 0c0.13,0 0.24,-0.02 0.33,-0.09 0.01,-0.01 0.02,-0.02 0.03,-0.03 0.07,-0.09 0.08,-0.13 0.11,-0.26l0.09 -0.34c0.01,-0.02 0.01,-0.05 0.02,-0.08l0.05 -0.17c0.01,-0.03 0.04,-0.1 0,-0.1l-0.28 0c-0.03,0 -0.03,0.05 -0.05,0.1 -0.01,0.04 -0.02,0.09 -0.03,0.13 -0.01,0.04 -0.02,0.08 -0.03,0.12 -0.02,0.04 -0.03,0.09 -0.04,0.13 -0.01,0.04 -0.02,0.08 -0.03,0.12 -0.01,0.04 -0.02,0.09 -0.04,0.12 -0.02,0.04 -0.04,0.07 -0.08,0.08 -0.07,0.04 -0.24,0.03 -0.34,0.03 -0.21,0 -0.15,-0.14 -0.11,-0.29 0.02,-0.05 0.04,-0.11 0.05,-0.17l0.09 -0.35c0,-0.01 -0.01,-0.02 -0.02,-0.02l-0.28 0c-0.03,0 -0.03,0.04 -0.04,0.09l-0.13 0.49c-0.02,0.07 -0.07,0.22 -0.07,0.28z"/>
    <path class="fil0" d="M6.21 2.74l0.84 0c0.03,0 0.03,-0.02 0.03,-0.04l0.04 -0.12c0.03,-0.1 0.04,-0.08 -0.21,-0.08l-0.49 0c-0.07,0 -0.15,-0.02 -0.15,-0.1 0,-0.05 0,-0.07 0.02,-0.11l0.04 -0.18c0.06,-0.22 0.18,-0.2 0.38,-0.2l0.57 0c0.01,0 0.02,-0.01 0.02,-0.03l0.05 -0.18c0.01,-0.02 0,-0.03 -0.01,-0.03l-0.85 0c-0.11,0 -0.22,0.02 -0.3,0.07 -0.13,0.1 -0.15,0.25 -0.2,0.42l-0.05 0.19c-0.02,0.08 -0.05,0.18 -0.03,0.26 0.02,0.05 0.05,0.08 0.09,0.1 0.05,0.02 0.14,0.03 0.21,0.03z"/>
    <path class="fil0" d="M7.87 1.91c0.01,0.02 0.01,0.01 -0.01,0.07 -0.05,0.17 -0.09,0.37 -0.14,0.54 -0.01,0.03 -0.02,0.07 -0.03,0.1 -0.01,0.03 -0.04,0.12 0,0.12l0.27 0c0.03,0 0.04,-0.04 0.05,-0.09 0.01,-0.03 0.02,-0.07 0.03,-0.1l0.1 -0.37c0,-0.02 0,-0.04 0.01,-0.06l0.04 -0.15c0.01,-0.02 0.01,-0.05 0.02,-0.05 0.02,-0.01 0.34,-0.01 0.4,-0.01 0.07,0 0.06,0.01 0.09,-0.1 0,-0.03 0.01,-0.05 0.02,-0.08 0.01,-0.02 0.02,-0.06 -0.02,-0.06l-1.18 0c-0.02,0 -0.02,0.02 -0.03,0.05l-0.04 0.15c-0.01,0.04 0,0.04 0.04,0.04 0.12,0 0.25,0 0.38,0z"/>
    <path class="fil0" d="M4.58 2.3c0,0.02 0.02,0.02 0.03,0.02l1.18 0c0.03,0 0.03,-0.03 0.03,-0.05 0.01,-0.02 0.02,-0.04 0.02,-0.07 0.02,-0.06 0.05,-0.12 0,-0.12l-1.18 0c-0.03,0 -0.04,0.07 -0.05,0.1 0,0.03 -0.03,0.11 -0.03,0.12z"/>
    <path class="fil0" d="M4.53 2.52c0,0.05 0,0.09 0.03,0.13 0.05,0.08 0.18,0.09 0.28,0.09l0.84 0c0.02,0 0.02,-0.02 0.03,-0.04 0,-0.02 0.01,-0.04 0.01,-0.06 0.02,-0.06 0.06,-0.14 0.01,-0.14l-1.17 0c-0.02,0 -0.03,0.01 -0.03,0.02z"/>
    <path class="fil0" d="M4.7 1.88c0,0.02 0.02,0.03 0.03,0.03l1.16 0c0.04,0 0.04,-0.03 0.06,-0.1 0,-0.02 0.01,-0.04 0.01,-0.06 0.01,-0.02 0.04,-0.08 0,-0.08l-0.85 0c-0.09,0 -0.19,0.01 -0.26,0.05 -0.04,0.02 -0.05,0.04 -0.08,0.07 -0.02,0.01 -0.07,0.07 -0.07,0.09z"/>
   </g>
   <g>
    <path class="fil0" d="M10.73 3.31l0.6 0c0.06,0 0.1,-0.03 0.1,-0.09l-0.61 0 0 -0.07 0.6 0c0.01,0 0.01,0 0.01,-0.01l0 -0.08 -0.61 0 0 -0.07 0.61 0c0,-0.03 -0.01,-0.05 -0.02,-0.07 -0.02,-0.01 -0.04,-0.03 -0.06,-0.03l-0.62 0 0 0.42z"/>
    <path class="fil0" d="M12.26 2.98c0,0.06 -0.01,0.11 0.03,0.15 0.02,0.01 0.04,0.02 0.08,0.02l0.5 0 0 0.07 -0.61 0c0,0.06 0.04,0.09 0.1,0.09l0.51 0c0.05,0 0.09,-0.04 0.09,-0.09l0 -0.08c0,-0.04 -0.03,-0.08 -0.07,-0.08l-0.53 0 0 -0.07 0.6 0c0,-0.05 -0.03,-0.1 -0.08,-0.1l-0.53 0c-0.05,0 -0.09,0.04 -0.09,0.09z"/>
    <path class="fil0" d="M11.59 2.99l0.51 0 0 0.07 -0.51 0 0 -0.07zm-0.09 -0.01l0 0.33 0.08 0c0.01,0 0.01,0 0.01,-0.01l0 -0.15 0.44 0c0,0.02 0.04,0.1 0.06,0.12 0.02,0.05 0,0.04 0.1,0.04 0.02,0 0.01,-0.01 -0.01,-0.03 -0.01,-0.02 -0.06,-0.12 -0.06,-0.13 0.04,0 0.08,-0.04 0.08,-0.09l0 -0.07c0,-0.05 -0.04,-0.1 -0.08,-0.1l-0.54 0c-0.02,0 -0.05,0.02 -0.06,0.03 -0.01,0.02 -0.02,0.04 -0.02,0.06z"/>
    <path class="fil0" d="M6.06 2.99l0.51 0 0 0.23 -0.51 0 0 -0.23zm-0.09 -0.02l0 0.26c0,0.02 0.01,0.05 0.03,0.06 0.01,0.02 0.04,0.02 0.07,0.02l0.49 0c0.07,0 0.11,-0.04 0.11,-0.11l0 -0.2c0,-0.06 -0.03,-0.11 -0.09,-0.11l-0.53 0c-0.04,0 -0.08,0.04 -0.08,0.08z"/>
    <path class="fil0" d="M8.27 3.31l0.08 0c0.01,0 0.01,0 0.01,-0.01l0 -0.15 0.6 0c0.01,0 0.01,0 0.01,-0.01l0 -0.08 -0.61 0 0 -0.07 0.6 0c0.01,0 0.01,-0.02 0,-0.03 -0.01,-0.04 -0.04,-0.07 -0.08,-0.07l-0.61 0 0 0.42z"/>
    <path class="fil0" d="M6.73 2.97l0 0.26c0,0.02 0.02,0.05 0.03,0.06 0.02,0.02 0.04,0.02 0.07,0.02l0.5 0c0.02,0 0.03,0 0.04,0 0.01,-0.01 0.03,-0.02 0.04,-0.03 0.02,-0.01 0.02,-0.04 0.02,-0.07l0 -0.21c0,-0.03 0,-0.05 -0.02,-0.07 -0.02,-0.03 -0.04,-0.04 -0.07,-0.04l0 0.33 -0.51 0 0 -0.33c-0.06,0 -0.1,0.04 -0.1,0.08z"/>
    <path class="fil0" d="M9.96 2.98l0 0.01 0.31 0 0 0.32 0.08 0c0.01,0 0.01,0 0.01,-0.01l0 -0.31 0.3 0c0,-0.05 -0.03,-0.1 -0.08,-0.1l-0.53 0c-0.04,0 -0.09,0.04 -0.09,0.09z"/>
    <path class="fil0" d="M9.2 2.98l0 0.01 0.3 0 0 0.32 0.08 0c0.01,0 0.01,0 0.01,-0.01l0 -0.31 0.31 0c0,-0.03 -0.01,-0.05 -0.03,-0.07l-0.02 -0.02c-0.01,0 -0.02,-0.01 -0.04,-0.01l-0.53 0c-0.04,0 -0.08,0.04 -0.08,0.09z"/>
    <path class="fil0" d="M7.5 2.97l0 0.02 0.3 0 0 0.32 0.09 0c0.01,0 0.01,0 0.01,-0.01l0 -0.31 0.29 0c0.03,0 0,-0.06 -0.01,-0.06 -0.01,-0.02 -0.03,-0.04 -0.06,-0.04l-0.53 0c-0.04,0 -0.09,0.04 -0.09,0.08z"/>
    <path class="fil0" d="M9.03 3.31l0.09 0c0.01,0 0.01,0 0.01,-0.01l0 -0.41 -0.1 0 0 0.42z"/>
   </g>
   <g>
    <path class="fil0" d="M2 3.05c0.15,0 0.32,-0.03 0.45,-0.1 0.01,0 0.02,-0.01 0.03,-0.01 0.03,-0.02 0.12,-0.06 0.13,-0.08l-0.21 0c-0.02,0 -0.02,0 -0.03,0.01 -0.22,0.1 -0.5,0.09 -0.72,0 -0.03,-0.01 -0.03,-0.01 -0.07,-0.01 -0.06,0 -0.11,0 -0.17,0 0.01,0.02 0.04,0.03 0.06,0.04 0.02,0.01 0.04,0.03 0.06,0.04 0.04,0.02 0.09,0.04 0.14,0.06 0.11,0.03 0.14,0.03 0.24,0.05 0.02,0 0.07,0 0.09,0z"/>
    <g>
     <path class="fil0" d="M1.39 0.57c-0.03,0 -0.04,-0.01 -0.07,-0.03 -0.01,-0.01 -0.03,-0.02 -0.04,-0.03 -0.03,-0.02 -0.06,-0.04 -0.09,-0.07 -0.06,-0.04 -0.11,-0.08 -0.17,-0.13l-0.05 -0.03c-0.02,0 -0.04,0.01 -0.05,0.02 -0.06,0.03 -0.12,0.08 -0.18,0.12 -0.01,0.01 -0.08,0.07 -0.08,0.08 0,0.06 0.04,0.17 0.06,0.22 0.03,0.07 0.09,0.14 0.09,0.22 0,0.06 -0.07,0.12 -0.09,0.16l-0.08 0.11c-0.01,0.02 -0.01,0.02 -0.04,0.01 -0.1,0 -0.21,0 -0.31,0 -0.02,0 -0.03,-0.01 -0.06,-0.01l-0.12 0c0,0.01 -0.01,0.03 -0.01,0.04 -0.01,0.02 -0.01,0.03 -0.02,0.05 -0.01,0.03 -0.02,0.05 -0.03,0.08l-0.04 0.14c-0.01,0.01 -0.01,0.01 -0.01,0.02l0 0.03 0 0c0.02,0 0.13,0.09 0.16,0.1l0.1 0.07c0.05,0.03 0.11,0.07 0.16,0.1 0,0.11 0,0.2 0,0.31l-0.41 0.26c-0.01,0 -0.01,0.01 -0.01,0.01l0 0.03c0,0.01 0.1,0.31 0.12,0.34 0.08,0 0.16,-0.01 0.25,-0.01 0.02,0 0.04,0 0.06,0 0.05,0 0.16,0 0.19,-0.01l0.07 0.09c0.01,0.01 0.01,0.02 0.02,0.03 0.02,0.03 0.04,0.06 0.07,0.08 0.04,0.04 0.03,0.02 0.01,0.09 -0.01,0.02 -0.02,0.04 -0.02,0.06 -0.01,0.02 -0.02,0.04 -0.03,0.06 0,0.03 -0.01,0.04 -0.02,0.06 -0.01,0.04 -0.08,0.24 -0.08,0.25 0,0.01 0.03,0.03 0.04,0.03 0.06,0.05 0.2,0.17 0.28,0.19l0.2 -0.15c0.04,-0.03 0.09,-0.07 0.14,-0.11 0.05,-0.05 0.1,-0.03 0.16,0 0.05,0.02 0.16,0.03 0.19,0.07 0.04,0.05 0.1,0.31 0.13,0.38 0.01,0.03 0.02,0.07 0.03,0.1l0.38 0c0,-0.01 0.02,-0.08 0.03,-0.09 0.01,-0.04 0.02,-0.07 0.03,-0.1 0.02,-0.06 0.06,-0.25 0.09,-0.29 0.02,-0.03 0.09,-0.03 0.14,-0.05 0.02,0 0.03,-0.01 0.05,-0.01 0.06,-0.02 0.12,-0.05 0.17,-0.01 0.01,0.01 0.01,0.01 0.02,0.02 0.05,0.04 0.17,0.14 0.23,0.18l0.09 0.06c0.02,0.01 0.03,0 0.05,-0.01 0.02,-0.01 0.03,-0.02 0.05,-0.03 0.01,-0.01 0.03,-0.02 0.04,-0.03 0.06,-0.04 0.12,-0.09 0.18,-0.12 0,-0.03 -0.02,-0.1 -0.03,-0.12 -0.02,-0.08 -0.06,-0.16 -0.09,-0.23 0,-0.02 -0.01,-0.04 -0.02,-0.06 -0.03,-0.1 0,-0.12 0.07,-0.2 0.01,-0.01 0.03,-0.03 0.04,-0.05 -0.05,0 -0.21,0.01 -0.25,0 -0.06,-0.02 -0.1,-0.07 -0.1,-0.15 0,-0.01 0,-0.01 0,-0.03 -0.02,0.01 -0.03,0.03 -0.05,0.04 -0.03,0.03 -0.06,0.06 -0.1,0.08 -0.02,0.01 -0.04,0.02 -0.06,0.03 -0.01,0.01 -0.01,0.01 -0.02,0.02 -0.01,0.01 -0.02,0.01 -0.02,0.02 -0.08,0.06 -0.19,0.13 -0.28,0.17 -0.04,0.01 -0.08,0.03 -0.13,0.04 -0.32,0.09 -0.63,0.04 -0.91,-0.13l-0.11 -0.07c-0.02,-0.02 -0.01,-0.02 -0.04,-0.02 -0.07,-0.01 -0.11,-0.06 -0.12,-0.13 -0.01,-0.02 0,-0.01 -0.01,-0.02l-0.05 -0.07c-0.22,-0.32 -0.26,-0.74 -0.1,-1.1l0.04 -0.09c0.01,-0.02 0.02,-0.03 0.03,-0.05 0.01,-0.01 0.02,-0.02 0.03,-0.04 0.1,-0.13 0.17,-0.21 0.31,-0.31 0.17,-0.11 0.39,-0.18 0.59,-0.18 0.17,0 0.3,0.02 0.44,0.08 0.13,0.05 0.26,0.13 0.36,0.22 0.01,0.01 0.02,0.02 0.03,0.03 0.05,0.06 0.02,0.04 0.13,0.04 0.08,0 0.28,-0.01 0.34,0.01 0.05,0.01 0.11,0.06 0.11,0.12 0,0.08 -0.04,0.13 -0.04,0.18 0.02,0 0.04,-0.01 0.06,-0.01l0.6 0c0,-0.08 -0.08,-0.26 -0.12,-0.32 -0.09,0 -0.16,0 -0.25,0 -0.05,0 -0.08,0 -0.13,0 -0.04,0 -0.09,0 -0.12,0.01 -0.01,-0.01 -0.01,-0.01 -0.02,-0.02l-0.15 -0.21c-0.01,-0.03 0.01,-0.08 0.02,-0.11 0.03,-0.07 0.13,-0.31 0.13,-0.39 0,-0.01 -0.03,-0.03 -0.04,-0.03l-0.1 -0.07c-0.02,-0.02 -0.15,-0.12 -0.17,-0.11 0,0 -0.02,0.01 -0.02,0.02 -0.03,0.01 -0.06,0.03 -0.09,0.05 -0.02,0.02 -0.05,0.04 -0.07,0.06 -0.07,0.05 -0.13,0.11 -0.2,0.15 -0.02,0.02 -0.03,0.01 -0.05,0 -0.02,0 -0.04,-0.01 -0.06,-0.01l-0.1 -0.04c-0.02,0 -0.04,-0.01 -0.06,-0.01 -0.05,-0.02 -0.05,-0.03 -0.06,-0.08 -0.04,-0.1 -0.06,-0.22 -0.1,-0.32 0,-0.02 -0.01,-0.04 -0.02,-0.05 0,-0.02 -0.01,-0.03 -0.02,-0.05 -0.02,0 -0.02,0 -0.04,0 -0.12,0 -0.22,-0.01 -0.34,-0.01l-0.04 0.09c-0.01,0.03 -0.02,0.06 -0.03,0.09 -0.02,0.09 -0.04,0.21 -0.08,0.3 -0.01,0.01 -0.03,0.01 -0.04,0.02 -0.02,0 -0.04,0.01 -0.06,0.01 -0.03,0.01 -0.06,0.02 -0.09,0.03 -0.03,0.01 -0.07,0.03 -0.1,0.03z"/>
     <path class="fil0" d="M0.95 2c0,0.18 0.05,0.33 0.13,0.49 0.01,0.02 0.06,0.12 0.08,0.13l0.04 -0.14c0,-0.01 -0.02,-0.04 -0.03,-0.05 -0.06,-0.12 -0.1,-0.26 -0.1,-0.41l0 -0.07c0,-0.18 0.08,-0.38 0.17,-0.51 0.05,-0.06 0.07,-0.07 0.11,-0.12l0.06 -0.05c0.05,-0.04 0.08,-0.05 0.12,-0.08 0.28,-0.16 0.66,-0.18 0.94,-0.02 0.02,0.02 0.04,0.03 0.07,0.05 0.04,0.03 0.02,0.02 0.08,0.02 0.04,0 0.08,0 0.11,0 -0.01,-0.02 -0.04,-0.04 -0.06,-0.06 -0.06,-0.05 -0.16,-0.11 -0.24,-0.14 -0.28,-0.12 -0.57,-0.13 -0.86,0 -0.29,0.13 -0.52,0.41 -0.59,0.72 -0.01,0.04 -0.01,0.07 -0.02,0.12l-0.01 0.12z"/>
     <path class="fil0" d="M2.95 2.04c0.04,0 0.09,0.06 0.11,0.07 0,-0.1 0,-0.12 -0.01,-0.22l-0.01 -0.08 -0.11 0 0.02 0.11c0,0.03 0,0.08 0,0.12z"/>
     <path class="fil0" d="M3.17 1.81l-0.05 0c0,0.02 0.01,0.05 0.01,0.07 0.01,0.05 0,0.12 0,0.18 0,0.02 0,0.03 0,0.05 0.01,-0.01 0.04,-0.14 0.04,-0.15l0.04 -0.12c0,-0.01 0,-0.03 0.01,-0.04 -0.02,0 -0.03,0.01 -0.05,0.01z"/>
    </g>
   </g>
   <g>
    <path class="fil0" d="M10.29 3.8l0 0.23 0.44 0 0 -0.06 -0.38 0 0 -0.04 0.38 0 0 -0.05 -0.38 0 0 -0.04 0.38 0 0 -0.05 -0.43 0c-0.01,0 -0.01,0 -0.01,0.01z"/>
    <path class="fil0" d="M10.19 3.97c-0.04,0.01 -0.28,0 -0.33,0l0 -0.13c0.05,0 0.29,0 0.33,0.01 0,0.02 0,0.1 0,0.12zm-0.39 0.06l0.39 0c0.03,0 0.06,-0.02 0.06,-0.06l0 -0.13c0,-0.04 -0.04,-0.05 -0.07,-0.05l-0.38 0 0 0.24z"/>
    <path class="fil0" d="M8.34 3.88c-0.01,0 -0.02,0 -0.03,0l-0.3 0 0 -0.04c0.05,0 0.29,0 0.33,0.01 0,0 0,0.01 0,0.03zm-0.39 -0.08l0 0.23 0.06 0 0 -0.1 0.34 0c0.02,0 0.04,-0.02 0.04,-0.04 0,-0.05 0.01,-0.1 -0.06,-0.1l-0.37 0c-0.01,0 -0.01,0 -0.01,0.01z"/>
    <path class="fil0" d="M11.15 3.88l-0.32 0 0 -0.04 0.32 0c0.02,0 0.03,0.04 0,0.04zm-0.37 0.15l0.05 0 0 -0.1 0.34 0c0.07,0 0.06,-0.11 0.03,-0.13 -0.01,-0.01 -0.03,-0.01 -0.05,-0.01l-0.37 0 0 0.24z"/>
    <path class="fil0" d="M8.44 4.03c0.07,0 0.06,0.02 0.06,-0.1l0.38 0 0 -0.05 -0.38 0 0 -0.04 0.38 0c0,-0.04 0.01,-0.05 -0.01,-0.05l-0.43 0 0 0.24z"/>
    <path class="fil0" d="M7.46 3.98c0,0.03 0.03,0.05 0.06,0.05l0.33 0c0.03,0 0.05,-0.02 0.05,-0.06l0 -0.17c0,-0.02 -0.01,-0.01 -0.04,-0.01 -0.02,0 -0.01,0.05 -0.01,0.08 0,0.04 0,0.07 0,0.1 -0.04,0.01 -0.26,0 -0.32,0 -0.01,0 -0.01,-0.01 -0.01,-0.03l0 -0.15 -0.06 0 0 0.19z"/>
    <path class="fil0" d="M11.27 3.8c0,0.03 -0.01,0.04 0.01,0.04l0.18 0 0 0.19c0.04,0 0.06,0 0.06,-0.01l0 -0.18 0.18 0c0.02,0 0.01,-0.01 0.01,-0.04 0,-0.01 0,-0.01 -0.01,-0.01l-0.42 0c-0.01,0 -0.01,0 -0.01,0.01z"/>
    <path class="fil0" d="M9.03 3.84l0.19 0 0 0.18c0,0.01 0.02,0.01 0.06,0.01l0 -0.19 0.19 0c0,-0.04 0.01,-0.05 0,-0.05l-0.44 0 0 0.05z"/>
    <path class="fil0" d="M8.93 3.8l0 0.22c0,0.01 0.02,0.01 0.05,0.01l0 -0.24c-0.03,0 -0.05,-0.01 -0.05,0.01z"/>
    <path class="fil0" d="M11.76 4.03c0.07,0 0.06,0.01 0.06,-0.05 0,-0.01 -0.02,-0.01 -0.06,-0.01l0 0.06z"/>
   </g>
  </g>
 </g>
</svg>
